<svg data-v-423bf9ae="" xmlns="http://www.w3.org/2000/svg" viewBox="0 0 302 90" class="iconLeft"><!----><!----><!----><g data-v-423bf9ae="" id="ab16fa9e-01ce-49b6-9aab-3d69fe9ffbb1" fill="black" transform="matrix(6.036217558641619,0,0,6.036217558641619,102.81994614894472,-15.241450873537914)"><path d="M1.19 14.88L3.15 14.88L3.15 5.08L1.19 5.08ZM12.96 14.88L10.84 11.19L12.46 10.25L12.46 6.02L10.84 5.08L5.53 5.08L5.53 14.88L7.49 14.88L7.49 11.19L8.71 11.19L10.81 14.88ZM7.49 6.76L10.50 6.76L10.50 9.51L7.49 9.51ZM22.47 14.01L22.47 5.95L20.85 5.01L16.46 5.01L14.84 5.95L14.84 14.01L16.46 14.95L20.85 14.95ZM16.80 6.69L20.51 6.69L20.51 13.27L16.80 13.27ZM26.81 8.54L26.84 8.54L31.07 14.88L32.90 14.88L32.90 5.08L30.94 5.08L30.94 11.42L30.91 11.42L26.68 5.08L24.85 5.08L24.85 14.88L26.81 14.88Z"></path></g><!----><g data-v-423bf9ae="" id="6066d261-3911-49ba-b689-20f3dd2f1de2" transform="matrix(1,0,0,1,-4.00152587890625,-5)" stroke="none" fill="black"><switch><g><path d="M50 5C24.9 5.2 4.8 25.5 5 50.3 5.2 74.9 25.3 95 50 95h.3c12-.1 23.3-4.8 31.7-13.4 8.4-8.6 13.1-19.9 13-31.9C94.8 25.1 74.7 5 50 5zm27.7 72.4C70.4 84.8 60.6 88.9 50.2 89H50c-21.3 0-38.8-17.4-38.9-38.7-.1-21.5 17.2-39 38.7-39.2 21.6 0 39 17.4 39.2 38.7 0 10.4-4 20.2-11.3 27.6z"></path><path d="M76.2 47.1v-2.8c0-1.6-1.3-2.9-2.9-2.9-1.1 0-2.1.6-2.6 1.6v-5.6c0-1.6-1.3-2.9-2.9-2.9-1.3 0-2.5.9-2.8 2.1v-4.9c0-1.6-1.3-2.9-2.9-2.9-1.6 0-2.9 1.3-2.9 2.9V47H40.6V31.8c0-1.6-1.3-2.9-2.9-2.9-1.6 0-2.9 1.3-2.9 2.9v4.5c-.5-1-1.5-1.7-2.6-1.7-1.6 0-2.9 1.3-2.9 2.9v5.7c-.5-1-1.5-1.7-2.6-1.7-1.6 0-2.9 1.3-2.9 2.9v2.8c-1.4.2-2.4 1.4-2.4 2.9s1.1 2.6 2.4 2.9v2.8c0 1.6 1.3 2.9 2.9 2.9 1.2 0 2.2-.7 2.6-1.7v5.7c0 1.6 1.3 2.9 2.9 2.9 1.2 0 2.2-.7 2.6-1.7v4.5c0 1.6 1.3 2.9 2.9 2.9 1.6 0 2.9-1.3 2.9-2.9V52.9h18.6v15.3c0 1.6 1.3 2.9 2.9 2.9 1.6 0 2.9-1.3 2.9-2.9v-4.9c.3 1.2 1.5 2.1 2.8 2.1 1.6 0 2.9-1.3 2.9-2.9V57c.5.9 1.5 1.6 2.6 1.6 1.6 0 2.9-1.3 2.9-2.9v-2.8c1.4-.2 2.4-1.4 2.4-2.9s-1-2.6-2.4-2.9z"></path></g></switch></g><!----></svg>